<svg id="Layer_1" data-name="Layer 1" xmlns="http://www.w3.org/2000/svg" xmlns:xlink="http://www.w3.org/1999/xlink" viewBox="0 0 442.41 101.64"><defs><style>.cls-1{fill:url(#linear-gradient);}.cls-2{fill:#f2f2f2;}.cls-3{fill:url(#linear-gradient-2);}.cls-4{fill:url(#linear-gradient-3);}.cls-5{fill:url(#linear-gradient-4);}.cls-6{fill:url(#linear-gradient-5);}.cls-7{fill:url(#linear-gradient-6);}.cls-8{mask:url(#mask);}.cls-9{fill:url(#linear-gradient-7);}</style><linearGradient id="linear-gradient" x1="23.61" y1="63.59" x2="73.5" y2="63.59" gradientUnits="userSpaceOnUse"><stop offset="0"/><stop offset="0.37" stop-color="#020202"/><stop offset="0.51" stop-color="#090909"/><stop offset="0.6" stop-color="#141414"/><stop offset="0.68" stop-color="#252525"/><stop offset="0.75" stop-color="#3b3b3b"/><stop offset="0.8" stop-color="#575757"/><stop offset="0.86" stop-color="#777"/><stop offset="0.91" stop-color="#9d9d9d"/><stop offset="0.95" stop-color="#c8c8c8"/><stop offset="0.99" stop-color="#f6f6f6"/><stop offset="1" stop-color="#fff"/></linearGradient><linearGradient id="linear-gradient-2" x1="1023.06" y1="99.53" x2="1102.98" y2="53.39" gradientTransform="matrix(-1, 0, 0, 1, 1132.57, -22.09)" gradientUnits="userSpaceOnUse"><stop offset="0" stop-color="#e2947e"/><stop offset="0.67" stop-color="#e56aff" stop-opacity="0.3"/><stop offset="0.79" stop-color="#a573f2" stop-opacity="0.42"/><stop offset="1" stop-color="#4081dd" stop-opacity="0.6"/></linearGradient><linearGradient id="linear-gradient-3" x1="-2.82" y1="41.5" x2="47.07" y2="41.5" gradientUnits="userSpaceOnUse"><stop offset="0" stop-color="#3131bf"/><stop offset="0.55" stop-color="#cf4aff" stop-opacity="0.38"/><stop offset="0.56" stop-color="#d04fff" stop-opacity="0.38"/><stop offset="0.85" stop-color="#f2ceff" stop-opacity="0.32"/><stop offset="1" stop-color="#fff" stop-opacity="0.3"/></linearGradient><linearGradient id="linear-gradient-4" x1="27.77" y1="47.49" x2="19.48" y2="55.57" gradientUnits="userSpaceOnUse"><stop offset="0" stop-color="#c33"/><stop offset="0.28" stop-color="#d9594d"/><stop offset="0.89" stop-color="#f9ba8d"/><stop offset="1" stop-color="#fc9"/></linearGradient><linearGradient id="linear-gradient-5" x1="23.73" y1="59.67" x2="15.1" y2="68.2" gradientUnits="userSpaceOnUse"><stop offset="0" stop-color="#fc9"/><stop offset="0.25" stop-color="#c9ba99"/><stop offset="0.49" stop-color="#9eac99"/><stop offset="0.7" stop-color="#80a299"/><stop offset="0.87" stop-color="#6d9b99"/><stop offset="1" stop-color="#699"/></linearGradient><linearGradient id="linear-gradient-6" x1="68.35" y1="70.27" x2="68.35" y2="87.01" gradientUnits="userSpaceOnUse"><stop offset="0" stop-color="#191c26" stop-opacity="0.1"/><stop offset="0.14" stop-color="#1c1e28" stop-opacity="0.11"/><stop offset="0.23" stop-color="#242730" stop-opacity="0.14"/><stop offset="0.31" stop-color="#32343d" stop-opacity="0.2"/><stop offset="0.38" stop-color="#454850" stop-opacity="0.27"/><stop offset="0.45" stop-color="#5e6168" stop-opacity="0.37"/><stop offset="0.51" stop-color="#7e7f85" stop-opacity="0.49"/><stop offset="0.57" stop-color="#a3a4a8" stop-opacity="0.64"/><stop offset="0.63" stop-color="#cdced0" stop-opacity="0.8"/><stop offset="0.68" stop-color="#fcfcfc" stop-opacity="0.99"/><stop offset="0.69" stop-color="#fff"/></linearGradient><mask id="mask" x="5.06" y="0" width="42.19" height="83" maskUnits="userSpaceOnUse"><g transform="translate(-26.43 -22.09)"><polygon class="cls-1" points="31.49 105.09 73.69 105.09 73.69 22.09 31.49 105.09"/></g></mask><linearGradient id="linear-gradient-7" x1="-2.82" y1="41.5" x2="47.07" y2="41.5" gradientUnits="userSpaceOnUse"><stop offset="0" stop-color="#4180dd" stop-opacity="0.9"/><stop offset="0.06" stop-color="#497fd3" stop-opacity="0.89"/><stop offset="0.16" stop-color="#607db9" stop-opacity="0.84"/><stop offset="0.28" stop-color="#85798e" stop-opacity="0.78"/><stop offset="0.42" stop-color="#b87452" stop-opacity="0.69"/><stop offset="0.58" stop-color="#f96e07" stop-opacity="0.57"/><stop offset="0.59" stop-color="#ff6d00" stop-opacity="0.56"/><stop offset="0.64" stop-color="#ff7004" stop-opacity="0.57"/><stop offset="0.68" stop-color="#ff7712" stop-opacity="0.59"/><stop offset="0.73" stop-color="#ff8428" stop-opacity="0.63"/><stop offset="0.78" stop-color="#ff9547" stop-opacity="0.68"/><stop offset="0.83" stop-color="#ffac6e" stop-opacity="0.75"/><stop offset="0.89" stop-color="#ffc89f" stop-opacity="0.83"/><stop offset="0.94" stop-color="#ffe8d7" stop-opacity="0.93"/><stop offset="0.97" stop-color="#fff"/></linearGradient></defs><title>logo</title><path class="cls-2" d="M125.68,57.5a2.83,2.83,0,0,1,2.1.87,2.87,2.87,0,0,1,.85,2.08,2.83,2.83,0,0,1-.86,2.11,2.88,2.88,0,0,1-2.09.84,2.94,2.94,0,0,1-3-3,2.89,2.89,0,0,1,.85-2.07A2.8,2.8,0,0,1,125.68,57.5Zm1.58,14V104.8H124V71.55Z" transform="translate(-26.43 -22.09)"/><path class="cls-2" d="M169.38,71.55v31.68a45,45,0,0,1-.59,8,15.19,15.19,0,0,1-2.72,6.13,15,15,0,0,1-5.77,4.75,17.31,17.31,0,0,1-7.49,1.64,19.15,19.15,0,0,1-8.05-1.67,14.1,14.1,0,0,1-5.88-4.9,14.83,14.83,0,0,1-2.49-7.68h3.23a11,11,0,0,0,2,5.91,12,12,0,0,0,4.68,3.94,14.23,14.23,0,0,0,6.26,1.39,15.13,15.13,0,0,0,6.1-1.23,10.51,10.51,0,0,0,4.55-3.73,15,15,0,0,0,2.37-5.62,37,37,0,0,0,.58-7V99H166a16.54,16.54,0,0,1-13,6.49,15,15,0,0,1-8.38-2.39,16.2,16.2,0,0,1-5.71-6.41,18.85,18.85,0,0,1-2-8.62A18.21,18.21,0,0,1,139,79.41a16,16,0,0,1,14.45-8.59A15,15,0,0,1,166,77.29h.14V71.55ZM153,73.85A11.62,11.62,0,0,0,147.88,75a12.72,12.72,0,0,0-4.1,3.16,14.75,14.75,0,0,0-2.68,4.57,15,15,0,0,0-.95,5.24,16.28,16.28,0,0,0,1.63,7.19,13.26,13.26,0,0,0,4.61,5.35,12.08,12.08,0,0,0,6.88,2,12.31,12.31,0,0,0,7.07-2A12.61,12.61,0,0,0,164.84,95a18.09,18.09,0,0,0,1.52-7.45,14.79,14.79,0,0,0-1.65-7,12.3,12.3,0,0,0-4.7-5A13.39,13.39,0,0,0,153,73.85Z" transform="translate(-26.43 -22.09)"/><path class="cls-2" d="M180.46,45.41h3.25V76.73h.14a10.85,10.85,0,0,1,4.05-4.34,11,11,0,0,1,5.81-1.56,11.56,11.56,0,0,1,6.57,1.63,8.68,8.68,0,0,1,3.39,4.68,24.94,24.94,0,0,1,1,7.57V104.8h-3.25V84.71a26.53,26.53,0,0,0-.53-5.77,6.36,6.36,0,0,0-2.29-3.7,8.21,8.21,0,0,0-5.17-1.39,8.36,8.36,0,0,0-6,2.08,10.51,10.51,0,0,0-2.92,5.31,31.35,31.35,0,0,0-.76,7.15V104.8h-3.25Z" transform="translate(-26.43 -22.09)"/><path class="cls-2" d="M219.34,74.57V104.8h-3.23V74.57h-3.67v-3h3.67V59.66h3.23V71.55h5.84v3Z" transform="translate(-26.43 -22.09)"/><path class="cls-2" d="M230.78,104.8V45.41H234V77.29h.14a14,14,0,0,1,5.5-4.77,17,17,0,0,1,15.86.54,15,15,0,0,1,5.73,6.15,18.9,18.9,0,0,1,2,8.75,19.51,19.51,0,0,1-2,8.87,15.53,15.53,0,0,1-5.77,6.36,16.53,16.53,0,0,1-16,.53,12.54,12.54,0,0,1-5.33-4.9H234v6Zm16.14-2.3a12.14,12.14,0,0,0,6.92-2,13.09,13.09,0,0,0,4.58-5.33A16.47,16.47,0,0,0,260,88a15.32,15.32,0,0,0-.93-5.28,14.31,14.31,0,0,0-2.67-4.55A12.65,12.65,0,0,0,252.27,75a12,12,0,0,0-5.21-1.14,13.21,13.21,0,0,0-7.1,1.86,12.09,12.09,0,0,0-4.58,5.1A16.3,16.3,0,0,0,233.81,88a16.51,16.51,0,0,0,1.59,7.22,12.76,12.76,0,0,0,4.59,5.28A12.38,12.38,0,0,0,246.92,102.5Z" transform="translate(-26.43 -22.09)"/><path class="cls-2" d="M300,88.46H271.11a15.28,15.28,0,0,0,1.74,7.42,12.18,12.18,0,0,0,4.78,4.91,13.61,13.61,0,0,0,6.8,1.71,12,12,0,0,0,6.86-2.07,14.86,14.86,0,0,0,4.88-5.49l2.72,1.58a16.21,16.21,0,0,1-14.89,9,15.36,15.36,0,0,1-8.46-2.36,15.73,15.73,0,0,1-5.68-6.35,19.22,19.22,0,0,1-2-8.72,18.7,18.7,0,0,1,2-8.62,15.91,15.91,0,0,1,5.7-6.31,15.49,15.49,0,0,1,22.47,6.43A20.36,20.36,0,0,1,300,88.46Zm-28.88-3h25.65a13.48,13.48,0,0,0-2.13-5.73,13.14,13.14,0,0,0-4.49-4.26,11.88,11.88,0,0,0-6.06-1.59,12.67,12.67,0,0,0-6.18,1.57,13.34,13.34,0,0,0-4.69,4.25A12,12,0,0,0,271.11,85.43Z" transform="translate(-26.43 -22.09)"/><path class="cls-2" d="M337.06,71.55V104.8h-3.23v-6h-.14a12.38,12.38,0,0,1-5.32,4.89,16.53,16.53,0,0,1-16-.52,15.53,15.53,0,0,1-5.77-6.36,19.51,19.51,0,0,1-2-8.87,19.78,19.78,0,0,1,1.14-6.8A16.07,16.07,0,0,1,309,75.69a14.65,14.65,0,0,1,5.16-3.59,17.08,17.08,0,0,1,6.7-1.27,16.28,16.28,0,0,1,7.3,1.69,14,14,0,0,1,5.51,4.78h.14V71.55Zm-16.33,2.3A11.66,11.66,0,0,0,315.55,75a12.72,12.72,0,0,0-4.1,3.16,14.75,14.75,0,0,0-2.68,4.57,15,15,0,0,0-.95,5.24,16.28,16.28,0,0,0,1.63,7.19,13.26,13.26,0,0,0,4.61,5.35,12.08,12.08,0,0,0,6.88,2,12.31,12.31,0,0,0,7.07-2A12.61,12.61,0,0,0,332.52,95,18.09,18.09,0,0,0,334,87.59a15.25,15.25,0,0,0-.94-5.37,13,13,0,0,0-2.7-4.4,12.28,12.28,0,0,0-4.21-2.93A13.78,13.78,0,0,0,320.73,73.85Z" transform="translate(-26.43 -22.09)"/><path class="cls-2" d="M351.4,71.55v4.17h.14a8.3,8.3,0,0,1,3.38-3.59,9.76,9.76,0,0,1,5-1.3,10.23,10.23,0,0,1,5.64,1.56,9.88,9.88,0,0,1,3.73,4.48,9.86,9.86,0,0,1,3.88-4.48A10.94,10.94,0,0,1,379,70.83a10.53,10.53,0,0,1,6.35,1.68A8.38,8.38,0,0,1,388.43,77a24.78,24.78,0,0,1,.83,6.87V104.8H386V83.5a14.87,14.87,0,0,0-1.4-7.15q-1.4-2.5-5.74-2.5a7.56,7.56,0,0,0-5.16,1.67,8.74,8.74,0,0,0-2.65,4.27,21.2,21.2,0,0,0-.75,5.85V104.8H367.1V84.29a22.73,22.73,0,0,0-.54-5.27,7,7,0,0,0-2.19-3.72,6.86,6.86,0,0,0-4.68-1.45q-4.71,0-6.5,3.74a20.58,20.58,0,0,0-1.78,8.94V104.8h-3.25V71.55Z" transform="translate(-26.43 -22.09)"/><path class="cls-2" d="M406,99.62a2.88,2.88,0,0,1,3,3,2.83,2.83,0,0,1-.86,2.11,2.88,2.88,0,0,1-2.09.84,2.94,2.94,0,0,1-3-3,2.88,2.88,0,0,1,.84-2.09A2.83,2.83,0,0,1,406,99.62Z" transform="translate(-26.43 -22.09)"/><path class="cls-2" d="M451.92,71.55V104.8h-3.23v-6h-.14a12.38,12.38,0,0,1-5.32,4.89,16.53,16.53,0,0,1-16-.52,15.53,15.53,0,0,1-5.77-6.36,19.51,19.51,0,0,1-2-8.87,19.78,19.78,0,0,1,1.14-6.8,16.07,16.07,0,0,1,3.28-5.47A14.65,14.65,0,0,1,429,72.1a17.08,17.08,0,0,1,6.7-1.27,16.28,16.28,0,0,1,7.3,1.69,14,14,0,0,1,5.51,4.78h.14V71.55Zm-16.33,2.3A11.66,11.66,0,0,0,430.41,75a12.72,12.72,0,0,0-4.1,3.16,14.75,14.75,0,0,0-2.68,4.57,15,15,0,0,0-.95,5.24,16.28,16.28,0,0,0,1.63,7.19,13.26,13.26,0,0,0,4.61,5.35,12.08,12.08,0,0,0,6.88,2,12.31,12.31,0,0,0,7.07-2A12.61,12.61,0,0,0,447.37,95a18.09,18.09,0,0,0,1.52-7.45,15.25,15.25,0,0,0-.94-5.37,13,13,0,0,0-2.7-4.4A12.28,12.28,0,0,0,441,74.89,13.78,13.78,0,0,0,435.59,73.85Z" transform="translate(-26.43 -22.09)"/><path class="cls-2" d="M465.89,57.5a2.83,2.83,0,0,1,2.1.87,2.87,2.87,0,0,1,.85,2.08,2.83,2.83,0,0,1-.86,2.11,2.88,2.88,0,0,1-2.09.84,2.94,2.94,0,0,1-3-3,2.89,2.89,0,0,1,.85-2.07A2.8,2.8,0,0,1,465.89,57.5Zm1.58,14V104.8h-3.23V71.55Z" transform="translate(-26.43 -22.09)"/><polygon class="cls-3" points="89.45 83 47.26 83 47.26 0 89.45 83"/><polygon class="cls-4" points="5.06 83 47.26 83 47.26 0 5.06 83"/><polygon class="cls-5" points="47.39 83 47.39 66.43 24.8 44.26 0 19.92 0 36.62 19.39 55.58 47.39 83"/><polygon class="cls-6" points="47.27 83 24.73 60.84 0 36.52 0 53.2 19.33 72.16 46.7 82.72 47.27 83"/><polygon class="cls-7" points="89.45 83 47.26 83 47.26 66.4 89.45 83"/><g class="cls-8"><polygon class="cls-9" points="5.06 83 47.26 83 47.26 0 5.06 83"/></g></svg>